<svg width="29" height="29" viewBox="0 0 29 29" fill="none" xmlns="http://www.w3.org/2000/svg">
<path fill-rule="evenodd" clip-rule="evenodd" d="M18.3405 1.44754C17.9037 0.990045 17.3786 0.625887 16.7971 0.377083C16.2155 0.12828 15.5896 0 14.957 0C14.3245 0 13.6985 0.12828 13.117 0.377083C12.5354 0.625887 12.0104 0.990045 11.5736 1.44754C11.2761 1.75942 10.9184 2.0077 10.5222 2.17738C10.126 2.34705 9.69949 2.43459 9.26847 2.4347H1.93378C1.67473 2.4347 1.42629 2.53761 1.24311 2.72079C1.05994 2.90396 0.957031 3.1524 0.957031 3.41145V11.0952C0.957365 14.4908 1.92318 17.8164 3.74183 20.684C5.56047 23.5516 8.15698 25.843 11.2285 27.2909L11.9265 27.6204C13.8409 28.5229 16.0484 28.5711 17.9993 27.7532C21.2456 26.3929 24.0176 24.1037 25.9672 21.1731C27.9168 18.2425 28.9569 14.8012 28.957 11.2814V3.41145C28.957 3.1524 28.8541 2.90396 28.6709 2.72079C28.4878 2.53761 28.2393 2.4347 27.9803 2.4347H20.6456C20.2146 2.43459 19.7881 2.34705 19.3919 2.17738C18.9956 2.0077 18.638 1.75942 18.3405 1.44754ZM18.7856 6.42412C18.8763 6.33335 18.984 6.26135 19.1025 6.21223C19.2211 6.1631 19.3481 6.13782 19.4764 6.13782C19.6048 6.13782 19.7318 6.1631 19.8504 6.21223C19.9689 6.26135 20.0766 6.33335 20.1673 6.42412L22.1768 8.43231C22.2701 8.52236 22.3446 8.63011 22.3958 8.74925C22.4471 8.86839 22.4741 8.99655 22.4753 9.12624C22.4765 9.25593 22.4518 9.38456 22.4028 9.50462C22.3537 9.62468 22.2812 9.73377 22.1896 9.82552C22.0979 9.91727 21.9889 9.98985 21.8689 10.039C21.7489 10.0882 21.6202 10.113 21.4906 10.1119C21.3609 10.1108 21.2327 10.0839 21.1135 10.0328C20.9943 9.98168 20.8865 9.90732 20.7963 9.81407L20.4812 9.49915L20.3052 9.67535C20.9582 10.5552 21.3842 11.5832 21.545 12.667H21.7939V12.2247C21.7939 11.9656 21.8968 11.7172 22.08 11.534C22.2632 11.3508 22.5116 11.2479 22.7707 11.2479C23.0297 11.2479 23.2782 11.3508 23.4613 11.534C23.6445 11.7172 23.7474 11.9656 23.7474 12.2247V15.0637C23.7474 15.3228 23.6445 15.5712 23.4613 15.7544C23.2782 15.9376 23.0297 16.0405 22.7707 16.0405C22.5116 16.0405 22.2632 15.9376 22.08 15.7544C21.8968 15.5712 21.7939 15.3228 21.7939 15.0637V14.6205H21.5452C21.3846 15.7044 20.9588 16.7325 20.306 17.6125L20.4814 17.7877L20.7952 17.4739C20.9783 17.291 21.2266 17.1883 21.4854 17.1883C21.7442 17.1883 21.9925 17.291 22.1756 17.4739V17.4726C22.2666 17.5633 22.3388 17.6711 22.388 17.7898C22.4372 17.9085 22.4626 18.0357 22.4626 18.1641C22.4626 18.2926 22.4372 18.4198 22.388 18.5385C22.3388 18.6572 22.2666 18.7649 22.1756 18.8557L21.2057 19.8256C21.195 19.8374 21.184 19.849 21.1727 19.8602C21.1616 19.8713 21.1503 19.8821 21.1387 19.8926L20.1674 20.8639C19.9833 21.0419 19.7366 21.1404 19.4805 21.1383C19.2244 21.1362 18.9794 21.0336 18.7982 20.8526C18.617 20.6716 18.5142 20.4267 18.5119 20.1706C18.5095 19.9145 18.6078 19.6677 18.7857 19.4834L19.1002 19.1688L18.9249 18.9936C18.0447 19.6465 17.0164 20.0723 15.9323 20.2328V20.4814H16.3776C16.6366 20.4814 16.885 20.5843 17.0682 20.7675C17.2514 20.9507 17.3543 21.1991 17.3543 21.4582C17.3543 21.7172 17.2514 21.9657 17.0682 22.1488C16.885 22.332 16.6366 22.4349 16.3776 22.4349H13.5372C12.9967 22.4349 12.5604 21.9973 12.5604 21.4582C12.5604 21.1991 12.662 20.9507 12.8452 20.7675C13.0284 20.5843 13.2768 20.4814 13.5359 20.4814H13.9788V20.2323C13.4407 20.1524 12.9131 20.0067 12.4083 19.7976C11.9024 19.5881 11.4255 19.3175 10.9879 18.9927L10.8117 19.1687L11.1266 19.4838C11.2198 19.574 11.2942 19.6818 11.3453 19.801C11.3964 19.9202 11.4233 20.0484 11.4244 20.1781C11.4255 20.3077 11.4007 20.4364 11.3515 20.5564C11.3023 20.6764 11.2298 20.7854 11.138 20.8771C11.0463 20.9687 10.9372 21.0412 10.8171 21.0903C10.6971 21.1393 10.5684 21.164 10.4387 21.1628C10.309 21.1616 10.1809 21.1346 10.0618 21.0833C9.94261 21.0321 9.83486 20.9576 9.74481 20.8643L8.76193 19.8814C8.75436 19.8743 8.7469 19.8671 8.73954 19.8598C8.73198 19.8522 8.72454 19.8445 8.71724 19.8367L7.73662 18.8561C7.64566 18.7654 7.57349 18.6576 7.52425 18.5389C7.47501 18.4203 7.44967 18.2931 7.44967 18.1646C7.44967 18.0361 7.47501 17.9089 7.52425 17.7902C7.57349 17.6716 7.64566 17.5638 7.73662 17.4731C7.91976 17.2901 8.16802 17.1874 8.42685 17.1874C8.68569 17.1874 8.93395 17.2901 9.11709 17.4731L9.43128 17.7875L9.60737 17.6117C9.28318 17.1745 9.01306 16.6983 8.80384 16.1932C8.5945 15.6878 8.4487 15.1597 8.36885 14.621H8.1195V15.0637C8.1195 15.3228 8.0166 15.5712 7.83342 15.7544C7.65025 15.9376 7.40181 16.0405 7.14276 16.0405C6.88371 16.0405 6.63527 15.9376 6.4521 15.7544C6.26892 15.5712 6.16602 15.3228 6.16602 15.0637V13.6442V12.2247C6.16602 11.9656 6.26892 11.7172 6.4521 11.534C6.63527 11.3508 6.88371 11.2479 7.14276 11.2479C7.40181 11.2479 7.65025 11.3508 7.83342 11.534C8.0166 11.7172 8.1195 11.9656 8.1195 12.2247V12.6675H8.36892C8.44878 12.129 8.59456 11.601 8.80384 11.0958C9.01317 10.5904 9.28346 10.1139 9.60787 9.6766L9.43058 9.49916L9.11591 9.81363C8.93161 9.99146 8.68484 10.0898 8.42874 10.0875C8.17264 10.0851 7.9277 9.98227 7.74669 9.80109C7.56568 9.61991 7.46307 9.37488 7.46097 9.11878C7.45887 8.86267 7.55743 8.61599 7.73545 8.43186L9.74363 6.42367C9.83436 6.33271 9.94215 6.26055 10.0608 6.21131C10.1795 6.16207 10.3067 6.13672 10.4352 6.13672C10.5636 6.13672 10.6909 6.16207 10.8095 6.21131C10.9282 6.26055 11.036 6.33271 11.1267 6.42367C11.3096 6.60681 11.4124 6.85507 11.4124 7.11391C11.4124 7.37275 11.3096 7.621 11.1267 7.80414L10.8126 8.11808L10.9892 8.29531C11.4265 7.97093 11.9029 7.70066 12.4083 7.49134C12.9135 7.28206 13.4414 7.13629 13.98 7.05642V6.807H13.5356C13.2765 6.807 13.0281 6.7041 12.8449 6.52092C12.6617 6.33775 12.5601 6.08931 12.5601 5.83026C12.5601 5.57121 12.663 5.32277 12.8462 5.1396C13.0294 4.95642 13.2778 4.85352 13.5369 4.85352H14.9567H16.3772C16.6363 4.85352 16.8847 4.95642 17.0679 5.1396C17.2511 5.32277 17.354 5.57121 17.354 5.83026C17.354 6.08931 17.2511 6.33775 17.0679 6.52092C16.8847 6.7041 16.6363 6.807 16.3772 6.807H15.9335V7.05632C17.0169 7.21689 18.0445 7.64245 18.9242 8.29485L19.1 8.11878L18.7856 7.80459C18.6026 7.62145 18.4999 7.37319 18.4999 7.11435C18.4999 6.85552 18.6026 6.60726 18.7856 6.42412Z" fill="white"/>
</svg>
