<svg width="133" height="123" viewBox="0 0 133 123" fill="none" xmlns="http://www.w3.org/2000/svg">
<path d="M108.838 120.64L132.534 22.988C133.851 17.5687 129.998 12.2593 124.436 11.8273L13.614 3.24082C7.54033 2.77047 2.74478 8.31501 4.08426 14.2583L22.0267 93.817C23.0083 98.1754 27.0242 101.166 31.4823 100.857L87.4543 96.9817C91.3194 96.7132 94.9263 98.9346 96.4243 102.506L104.198 121.011C105.116 123.188 108.28 122.935 108.838 120.64Z" fill="url(#paint0_linear_47_1475)"/>
<path d="M104.98 117.424L128.677 19.7725C129.993 14.3532 126.141 9.04388 120.578 8.61187L9.75665 0.0279307C3.6804 -0.442422 -1.11515 5.10212 0.226885 11.0454L18.1693 90.6041C19.1535 94.9625 23.1694 97.9534 27.6249 97.6441L83.5969 93.7687C87.462 93.5003 91.0689 95.7217 92.5669 99.2928L100.34 117.798C101.258 119.976 104.423 119.723 104.98 117.424Z" fill="#FFDE74"/>
<path d="M44.2921 69.359C46.5135 70.4352 47.7277 72.0737 47.9654 74.2568C48.1597 76.0334 47.6382 77.4956 46.4138 78.6612C45.1944 79.8218 43.5917 80.4506 41.5901 80.5529L31.6079 81.0641L26.751 57.751L37.3876 57.8072C39.6269 57.82 41.585 58.5 43.2491 59.8318C44.8775 61.1355 45.7926 62.7638 46.015 64.7117C46.2374 66.6442 45.6597 68.1831 44.2921 69.359ZM38.1034 62.4468L32.9883 62.4775L33.952 67.7971L38.9163 67.7025C39.6729 67.6872 40.266 67.4341 40.7031 66.9356C41.1402 66.4372 41.3064 65.8186 41.2041 65.0772C41.0993 64.3282 40.7593 63.702 40.1842 63.2009C39.5988 62.6948 38.906 62.4417 38.1034 62.4468ZM41.0201 76.767C41.8023 76.7338 42.4132 76.4731 42.8606 75.9823C43.3079 75.4889 43.4817 74.878 43.382 74.1469C43.2849 73.4286 42.9424 72.8329 42.3544 72.36C41.7588 71.8846 41.061 71.6545 40.2557 71.6801L34.6805 71.8411L35.6136 76.9945L41.0201 76.767Z" fill="#252525"/>
<path d="M64.9995 79.3517L63.6958 75.9033L55.1758 76.2612L54.1379 79.909L49.4983 80.1467L55.7433 57.9072L61.5102 57.9379L69.3119 79.1293L64.9995 79.3517ZM56.3082 72.3961L62.2975 72.2044L58.913 63.3137L56.3082 72.3961Z" fill="#252525"/>
<path d="M79.6527 78.9635C76.805 79.1118 74.4558 78.304 72.5948 76.4942C70.6725 74.6255 69.7037 72.1843 69.7369 69.1475C69.7727 65.9854 70.8617 63.245 73.0217 60.9879C75.2099 58.7025 77.9272 57.5599 81.1123 57.5803C82.9988 57.5931 84.6834 58.0865 86.1609 59.0502C87.6078 59.996 88.6635 61.2511 89.3281 62.8028L85.7852 64.9296C85.3864 63.9889 84.755 63.245 83.8884 62.7082C83.0116 62.1663 81.9865 61.8928 80.8183 61.9004C78.8117 61.9107 77.145 62.5983 75.8413 63.9506C74.5452 65.2952 73.8678 67.0027 73.8014 69.0503C73.7349 71.034 74.282 72.6035 75.4195 73.7692C76.5366 74.9144 78.0294 75.4384 79.8981 75.3592C80.9896 75.3132 81.9891 75.032 82.9017 74.5131C83.8143 73.9967 84.5351 73.3065 85.0643 72.4425L88.0372 74.2114C87.0991 75.602 85.8951 76.714 84.4201 77.5601C82.9426 78.4062 81.3577 78.874 79.6527 78.9635Z" fill="#252525"/>
<path d="M103.127 77.3976L99.3464 77.5919L94.4971 69.1588L93.2292 77.9063L89.7578 78.0852L92.263 58.1055L96.0948 58.1259L94.7528 67.3796L102.562 58.1617L106.716 58.1847L98.2497 68.1746L103.127 77.3976Z" fill="#252525"/>
<path d="M37.742 49.6476C33.5982 49.5428 29.8482 48.0218 26.4535 45.0003C22.9131 41.8459 20.5741 37.8811 19.5234 33.0498C18.4166 27.9654 19.0812 23.6657 21.5863 20.2889C24.1324 16.8558 27.9131 15.386 32.8058 15.91C35.6918 16.2193 38.4194 17.2878 40.9705 19.0849C43.4578 20.8359 45.4389 23.0215 46.9241 25.6136L42.31 28.515C41.4102 26.9531 40.2241 25.6724 38.744 24.6831C37.2409 23.6785 35.6024 23.0906 33.8334 22.9295C30.7889 22.6534 28.4857 23.5251 26.9724 25.5318C25.4719 27.5206 25.0475 30.174 25.6687 33.4409C26.2669 36.5825 27.6345 39.126 29.7434 41.102C31.7986 43.0269 34.1939 44.0264 36.9367 44.1312C38.5318 44.1925 39.9173 43.8807 41.0983 43.193C42.2793 42.5054 43.1229 41.5289 43.6316 40.2533L48.5371 43.3592C47.5938 45.3812 46.1751 46.9431 44.2834 48.0602C42.3892 49.1824 40.219 49.709 37.742 49.6476Z" fill="url(#paint1_linear_47_1475)"/>
<path d="M67.771 49.8948L66.3293 45.0814L56.4493 44.6903L55.2172 49.5548L49.8184 49.4091L57.2724 19.2324L64.0721 19.9507L72.7251 50.0252L67.771 49.8948ZM57.8041 39.5087L64.7725 39.8794L60.9509 27.2003L57.8041 39.5087Z" fill="url(#paint2_linear_47_1475)"/>
<path d="M81.9352 50.7725C79.7802 50.7188 77.973 50.1155 76.5159 48.9524C75.0307 47.7663 73.9903 46.1559 73.4075 44.1006L77.431 41.6108C78.1979 44.3946 79.8569 45.8057 82.403 45.9028C83.6197 45.9514 84.5272 45.729 85.1331 45.2331C85.7389 44.7397 86.0763 44.0955 86.1453 43.298C86.2271 42.37 85.9434 41.6236 85.289 41.0638C84.6269 40.4989 83.405 39.8521 81.6029 39.1185C80.5957 38.689 79.7368 38.2647 79.0364 37.8454C78.3283 37.4237 77.6228 36.8715 76.9147 36.1813C76.1989 35.486 75.6647 34.622 75.3068 33.5867C74.9438 32.5386 74.7853 31.3219 74.8288 29.9312C74.9182 27.127 75.8052 24.9184 77.4949 23.3514C79.1949 21.7742 81.1836 21.1045 83.4306 21.3473C85.4168 21.5595 87.0937 22.3775 88.4588 23.7758C89.7957 25.151 90.7466 26.9379 91.3167 29.1209L87.2369 31.6184C86.5237 29.0008 85.1177 27.5693 83.0216 27.3801C82.0323 27.2906 81.2348 27.5054 80.6366 28.0268C80.0359 28.5458 79.7138 29.2564 79.6652 30.1511C79.6141 31.0969 79.8876 31.8817 80.4807 32.5054C81.0686 33.1266 82.2138 33.8296 83.8984 34.6143C84.5809 34.9364 85.0973 35.1844 85.4475 35.3582C85.7951 35.532 86.2629 35.7953 86.8534 36.143C87.4388 36.4906 87.8862 36.8076 88.1929 37.0939C88.4971 37.3776 88.8396 37.756 89.218 38.2263C89.5937 38.6941 89.8673 39.1645 90.0385 39.6425C90.2098 40.1154 90.3376 40.6803 90.422 41.3322C90.5089 41.9815 90.5114 42.6793 90.4296 43.4232C90.174 45.7929 89.2665 47.6129 87.7123 48.9141C86.1632 50.2152 84.246 50.8313 81.9352 50.7725Z" fill="url(#paint3_linear_47_1475)"/>
<path d="M108.053 24.6007L112.181 25.0379L107.15 50.9533L103.438 50.8536L105.218 40.7436L97.6127 40.309L96.1659 50.6593L92.1755 50.5519L95.4552 23.2715L99.9312 23.7444L98.3234 35.2425L106.089 35.7997L108.053 24.6007Z" fill="url(#paint4_linear_47_1475)"/>
<defs>
<linearGradient id="paint0_linear_47_1475" x1="-20.267" y1="-64.2265" x2="105.634" y2="349.082" gradientUnits="userSpaceOnUse">
<stop stop-color="#9020FF"/>
<stop offset="1" stop-color="#B50079"/>
</linearGradient>
<linearGradient id="paint1_linear_47_1475" x1="13.4814" y1="-3.32642" x2="55.8068" y2="108.842" gradientUnits="userSpaceOnUse">
<stop stop-color="#9020FF"/>
<stop offset="1" stop-color="#B50079"/>
</linearGradient>
<linearGradient id="paint2_linear_47_1475" x1="45.5323" y1="1.82522" x2="88.6767" y2="99.3118" gradientUnits="userSpaceOnUse">
<stop stop-color="#9020FF"/>
<stop offset="1" stop-color="#B50079"/>
</linearGradient>
<linearGradient id="paint3_linear_47_1475" x1="70.0565" y1="4.63516" x2="116.804" y2="90.9044" gradientUnits="userSpaceOnUse">
<stop stop-color="#9020FF"/>
<stop offset="1" stop-color="#B50079"/>
</linearGradient>
<linearGradient id="paint4_linear_47_1475" x1="88.4323" y1="7.62292" x2="127.97" y2="94.4139" gradientUnits="userSpaceOnUse">
<stop stop-color="#9020FF"/>
<stop offset="1" stop-color="#B50079"/>
</linearGradient>
</defs>
</svg>
