<svg width="41" height="42" viewBox="0 0 41 42" fill="none" xmlns="http://www.w3.org/2000/svg">
<rect y="0.799805" width="40" height="40" rx="20" fill="#00171B"/>
<path d="M14.2551 28.7998L11.0151 14.8398H13.6551L15.0351 21.5398L15.8951 25.8198H15.9551L16.9551 21.5398L18.5551 14.8398H21.4751L23.0751 21.5398L24.0551 25.8198H24.1151L24.9951 21.5398L26.4151 14.8398H28.9351L25.5951 28.7998H22.6151L20.8351 21.4198L19.9751 17.7398H19.9351L19.0351 21.4198L17.2551 28.7998H14.2551Z" fill="white"/>
<mask id="path-3-inside-1_4149_30832" fill="white">
<path d="M29 35.1992C29 31.8855 31.6863 29.1992 35 29.1992C38.3137 29.1992 41 31.8855 41 35.1992C41 38.5129 38.3137 41.1992 35 41.1992C31.6863 41.1992 29 38.5129 29 35.1992Z"/>
</mask>
<path d="M29 35.1992C29 31.8855 31.6863 29.1992 35 29.1992C38.3137 29.1992 41 31.8855 41 35.1992C41 38.5129 38.3137 41.1992 35 41.1992C31.6863 41.1992 29 38.5129 29 35.1992Z" fill="#20B26C"/>
<path d="M35 40.1992C32.2386 40.1992 30 37.9606 30 35.1992H28C28 39.0652 31.134 42.1992 35 42.1992V40.1992ZM40 35.1992C40 37.9606 37.7614 40.1992 35 40.1992V42.1992C38.866 42.1992 42 39.0652 42 35.1992H40ZM35 30.1992C37.7614 30.1992 40 32.4378 40 35.1992H42C42 31.3332 38.866 28.1992 35 28.1992V30.1992ZM35 28.1992C31.134 28.1992 28 31.3332 28 35.1992H30C30 32.4378 32.2386 30.1992 35 30.1992V28.1992Z" fill="white" mask="url(#path-3-inside-1_4149_30832)"/>
</svg>
