<svg width="77" height="79" viewBox="0 0 77 79" fill="none" xmlns="http://www.w3.org/2000/svg">
<g clip-path="url(#clip0_47_132)">
<path d="M77 0.15625H0V78.6449H77V0.15625Z" fill="#E41532"/>
<path d="M34.1784 38.6153L34.0203 38.905C33.9019 39.1531 33.7441 39.4424 33.5863 39.6905C33.3495 40.0627 33.1519 40.4763 32.8756 40.8485C32.5599 41.3447 32.2442 41.8404 31.889 42.2953C31.4943 42.8329 31.0604 43.371 30.6262 43.8672C30.1132 44.4048 29.6 44.9419 29.0475 45.4382C28.416 46.0585 27.8633 46.7615 27.4292 47.5472C27.1529 48.0021 26.9164 48.3743 26.7586 48.5811C27.0743 48.0021 27.2713 47.4234 27.3897 46.7617C24.5086 48.7467 21.1541 49.739 17.7205 49.6563C15.1551 49.739 12.6293 49.0774 10.4192 47.7128C11.0507 44.8181 11.3663 41.8825 11.2873 38.905C11.2873 38.1607 11.2477 37.4161 11.1293 36.6718C13.4184 40.8485 16.9707 42.9162 21.7462 42.9162C23.8774 42.9162 25.969 42.5854 27.9818 41.9237C28.0213 41.1794 28.0608 40.4348 28.0608 39.6077C28.0608 32.9498 27.0346 27.3669 25.0218 22.8594C23.009 18.3519 20.8778 15.9949 18.6281 15.7881C20.0095 14.3408 21.667 13.224 23.443 12.4383C25.2585 11.4458 27.2322 10.7428 29.2845 10.412C31.2973 12.0248 32.6391 14.3409 33.1522 16.9461C33.8231 19.8822 34.1389 22.9007 34.1389 25.9195C34.0205 31.0887 32.8365 36.1756 30.7448 40.8485C32.0472 40.3936 33.2312 39.6077 34.1784 38.6153ZM47.2022 13.7205C49.5702 12.2317 52.2934 11.4459 55.056 11.4872C56.9899 11.4459 58.8846 11.6522 60.7395 12.1071C62.1998 12.5206 63.0682 13.1003 63.3445 13.886C63.6208 14.7131 63.7391 15.581 63.7391 16.408C63.6996 18.1862 63.2652 19.8816 62.5154 21.453C62.0023 22.7763 61.1735 23.9758 60.1079 24.8443C59.5159 22.6112 58.0952 20.7088 56.2007 19.5095C54.109 18.3103 51.7806 17.7317 49.4125 17.8144C48.5837 17.8144 47.7549 17.8559 46.9261 17.98C46.7288 21.7845 46.6496 24.886 46.6496 27.3259C46.6101 31.6266 47.0841 35.8853 47.9918 40.062C48.7022 43.453 49.6493 46.8033 50.8333 50.0702C48.8205 50.1116 46.8076 49.8627 44.8737 49.2837C43.4924 48.9943 42.19 48.5401 40.8876 47.9198C40.8481 46.8446 40.8085 45.5619 40.8085 44.1146C40.7691 39.5243 41.0456 34.9348 41.5982 30.3446C42.1507 26.3333 43.0187 22.3629 44.2817 18.5171C43.0976 18.8066 41.9136 19.2202 40.8085 19.7165L40.848 19.6751L40.8876 19.6337L40.9271 19.5923C42.2689 17.7728 43.8479 16.1603 45.6239 14.7957C46.0975 13.4724 46.7684 11.9003 47.5972 9.99805L47.2022 13.7205ZM64.4887 17.98C65.4359 20.6266 65.9095 23.4386 65.949 26.2506C66.0279 29.807 64.844 33.2387 62.6339 35.9267C60.4237 38.5319 58.1743 39.8561 55.9247 39.8561C53.6751 39.8147 51.5831 38.6568 50.2807 36.7132C48.7415 34.7282 47.7945 32.3704 47.5182 29.8479C48.939 31.1712 50.8332 31.8327 52.7276 31.75C54.622 31.7086 56.5166 31.2544 58.2531 30.4274C60.187 29.559 61.7657 28.0287 62.7524 26.0851C63.8969 23.5625 64.4887 20.792 64.4887 17.98Z" fill="white"/>
<path d="M6.90665 59.788L6.86715 62.4352H8.16938L9.74816 62.3938L9.86667 62.5594L9.70865 64.0889L7.97234 64.0475H6.78814V64.833L6.86715 67.9345H4.8938L5.01232 64.9986L4.8938 58.1343H10.4588L10.5773 58.2998L10.4193 59.8708L8.20889 59.788H6.90665ZM16.6944 58.0101C17.8389 57.9274 18.9441 58.3825 19.7334 59.2509C20.4833 60.2434 20.878 61.5248 20.7991 62.8067C20.878 64.2127 20.4832 65.5782 19.6544 66.6947C18.8256 67.6458 17.6023 68.1414 16.3788 68.0587C15.2343 68.1414 14.1291 67.6459 13.3398 66.7775C12.5899 65.7436 12.1952 64.4612 12.2741 63.1379C12.1952 61.7732 12.59 60.4089 13.4188 59.3337C14.2476 58.4239 15.4709 57.9687 16.6944 58.0101ZM16.4973 59.7052C15.8659 59.6639 15.2342 59.9127 14.8 60.4503C14.4054 61.1947 14.208 62.0625 14.287 62.9309C14.208 63.882 14.4054 64.8752 14.8 65.7436C15.1947 66.3226 15.8264 66.6532 16.4973 66.5705C17.1288 66.6119 17.76 66.3226 18.1941 65.785C18.5888 64.9993 18.7862 64.1305 18.7072 63.262C18.7862 62.3109 18.5888 61.3601 18.1941 60.4917C17.8389 59.9541 17.1683 59.6225 16.4973 59.7052ZM28.6135 64.0889C29.3633 65.3295 30.113 66.4877 30.8629 67.4802L30.8239 67.6871C30.1924 67.9353 29.5605 68.0587 28.8895 68.1001L28.6925 67.9345C27.9821 66.6939 27.4293 65.5782 26.9952 64.6684H25.5744V64.8744L25.6535 67.9759H23.6801L23.7986 65.04L23.6801 58.1757H27.2717C28.1005 58.1343 28.8897 58.3821 29.5211 58.9197C30.0737 59.4987 30.3502 60.2845 30.3108 61.0702C30.3108 61.6905 30.1529 62.2691 29.8372 62.8067C29.5609 63.303 29.1265 63.7581 28.6135 64.0889ZM25.6139 63.0551L27.0347 63.0965C27.824 62.8483 28.3373 62.0628 28.2584 61.2358C28.2979 60.8222 28.1401 60.3672 27.8638 60.0778C27.5086 59.7883 27.0743 59.6225 26.6401 59.6638L25.6535 59.7052L25.6139 63.0551ZM43.4531 67.9759H41.7163L41.5587 64.9986L41.2427 61.2358H41.0852L38.9933 66.942H37.454L35.5597 61.2358H35.4412L35.0861 64.7916L34.8886 67.9345H33.2313L34.1784 58.1343H36.4278L36.8224 59.582L38.2827 64.2131H38.4012L39.9405 59.582L40.3745 58.1343H42.5849L43.4531 67.9759ZM53.9119 63.1379V64.4201C53.9908 65.4125 53.6356 66.4046 52.9252 67.1076C52.1359 67.8106 51.1094 68.1414 50.0833 68.0587C49.0966 68.1414 48.1496 67.8107 47.3998 67.149C46.7288 66.446 46.4132 65.454 46.5316 64.5028V63.0965L46.4921 58.1757H48.4655L48.3469 64.2545C48.3075 64.8334 48.4653 65.412 48.781 65.9082C49.1362 66.2804 49.6492 66.4877 50.2018 66.4463C51.4647 66.4463 52.0961 65.7433 52.0566 64.3787L51.9386 58.2171H53.9514L53.9119 63.1379ZM62.5549 66.4049L62.4364 67.9345H57.385L57.5031 64.9986L57.385 58.1343H59.3979L59.2794 64.833L59.3189 66.2394H62.4364L62.5549 66.4049ZM72.5402 67.9759H70.5273L70.2908 66.6947L70.0538 65.785L68.2384 65.7436L66.6202 65.785L66.3831 66.5705L66.1466 67.9345H64.2127L67.3698 58.1343H69.6987L72.5402 67.9759ZM69.6592 64.1717L68.554 60.0778H68.4355L67.1728 64.1717L68.4355 64.2131L69.6592 64.1717Z" fill="white"/>
</g>
<defs>
<clipPath id="clip0_47_132">
<rect width="77" height="78.4887" fill="white" transform="translate(0 0.15625)"/>
</clipPath>
</defs>
</svg>
