<svg width="80" height="79" viewBox="0 0 80 79" fill="none" xmlns="http://www.w3.org/2000/svg">
<path d="M79.2737 0.108887H0.654297V78.5735H79.2737V0.108887Z" fill="url(#paint0_linear_47_116)"/>
<path d="M75.8036 4.39893H4.89331V75.206H75.8036V4.39893Z" fill="#262626"/>
<path d="M15.0269 22.3818V13.2058C15.0269 13.1332 15.056 13.0678 15.0997 13.0169C15.1506 12.9661 15.2234 12.937 15.2889 12.937H20.8432C20.916 12.937 20.9815 12.9661 21.0325 13.0097C21.0835 13.0605 21.1126 13.1259 21.1053 13.1985V13.9759C21.1053 14.0486 21.0762 14.114 21.0325 14.1648C20.9815 14.2157 20.916 14.2448 20.8432 14.2375H16.4537V17.4414H20.159C20.2245 17.4414 20.29 17.4705 20.3409 17.5141C20.3919 17.565 20.421 17.6304 20.421 17.703V18.4658C20.421 18.5312 20.3919 18.5966 20.3409 18.6475C20.2973 18.6983 20.2318 18.7274 20.159 18.7274H16.4537V22.3746C16.4537 22.4399 16.4245 22.5053 16.3736 22.5562C16.3299 22.607 16.2644 22.6361 16.1916 22.6361H15.2962C15.2234 22.6361 15.1579 22.607 15.1069 22.5635C15.056 22.5199 15.0269 22.4472 15.0269 22.3818Z" fill="white"/>
<path d="M39.1885 22.3818V13.2058C39.1885 13.1404 39.2176 13.075 39.2613 13.0242C39.3122 12.9661 39.3777 12.937 39.4505 12.937H40.3605C40.4333 12.937 40.4988 12.9661 40.5498 13.0169C40.5934 13.0678 40.6226 13.1259 40.6226 13.1985V22.3746C40.6226 22.4399 40.5934 22.5053 40.5498 22.5562C40.4988 22.607 40.4333 22.6361 40.3605 22.6361H39.4578C39.385 22.6361 39.3195 22.607 39.2686 22.5562C39.2249 22.5126 39.1958 22.4472 39.1885 22.3818Z" fill="white"/>
<path d="M60.2613 22.3819V14.2448H57.9974C57.9246 14.2448 57.8591 14.2157 57.8081 14.1721C57.7571 14.1213 57.728 14.0559 57.728 13.9905V13.2131C57.728 13.1405 57.7571 13.0751 57.8008 13.0242C57.8518 12.9734 57.9173 12.9443 57.9901 12.9443H63.9593C64.0321 12.9443 64.0977 12.9734 64.1486 13.017C64.1996 13.0678 64.2287 13.1332 64.2214 13.2059V13.9833C64.2214 14.0559 64.1923 14.1213 64.1486 14.1721C64.0977 14.223 64.0321 14.2521 63.9593 14.2448H61.6954V22.3819C61.6954 22.4473 61.6663 22.5127 61.6226 22.5635C61.5789 22.6144 61.5134 22.6507 61.4406 22.6507H60.5161C60.4433 22.6507 60.3778 22.6216 60.3268 22.5708C60.2904 22.5127 60.2613 22.4473 60.2613 22.3819Z" fill="white"/>
<path d="M12.7756 45.3122C12.6882 45.3195 12.6008 45.2759 12.5426 45.2033C12.4917 45.1306 12.4917 45.0289 12.5426 44.9563L16.8012 35.6277C16.8448 35.5332 16.9322 35.4751 17.0341 35.4751H17.1724C17.2743 35.4751 17.369 35.5332 17.4054 35.6277L21.6421 44.9635C21.693 45.0362 21.693 45.1379 21.6421 45.2105C21.5911 45.2832 21.5038 45.3268 21.4091 45.3195H20.5429C20.3973 45.3195 20.2735 45.2323 20.2226 45.1015L19.3563 43.2053H14.8066C14.7119 43.416 14.5663 43.7357 14.3698 44.1571C14.1732 44.5785 14.0276 44.8909 13.933 45.1088C13.8893 45.2469 13.7583 45.334 13.6127 45.3268L12.7756 45.3122ZM15.3525 42.0138H18.8249L17.1142 38.2141H17.0414L15.3525 42.0138Z" fill="white"/>
<path d="M36.0054 45.0498V35.7213C36.0054 35.6559 36.0345 35.5905 36.0782 35.5469C36.1291 35.496 36.2019 35.467 36.2747 35.4742H36.6241L42.6443 42.4344H42.6589V35.8811C42.6589 35.8084 42.688 35.7431 42.7317 35.6922C42.7827 35.6414 42.8482 35.6123 42.921 35.6196H43.8091C43.8746 35.6196 43.9401 35.6486 43.9911 35.6995C44.042 35.7431 44.0711 35.8084 44.0711 35.8811V45.2097C44.0711 45.2751 44.042 45.3405 43.9983 45.384C43.9474 45.4349 43.8819 45.464 43.8091 45.4567H43.4524L37.4249 38.3077H37.4103V45.0571C37.4103 45.1298 37.3812 45.1951 37.3375 45.246C37.2866 45.2969 37.2211 45.3259 37.1483 45.3187H36.2747C36.2019 45.3187 36.1364 45.2896 36.0854 45.2387C36.0418 45.1806 36.0127 45.1152 36.0054 45.0498Z" fill="white"/>
<path d="M57.3058 44.902V35.726C57.3058 35.6534 57.3349 35.588 57.3786 35.5371C57.4223 35.4863 57.4878 35.4572 57.5533 35.4572H60.749C62.0448 35.4354 63.2896 35.9512 64.1923 36.8812C65.1241 37.7748 65.6409 39.0099 65.6263 40.2959C65.6482 41.5891 65.1241 42.8314 64.1923 43.7323C63.2896 44.6623 62.0448 45.1781 60.749 45.1636H57.5533C57.4878 45.1636 57.4223 45.1345 57.3786 45.0909C57.3276 45.0473 57.2985 44.9747 57.3058 44.902ZM58.718 43.8558H60.5525C61.4988 43.8849 62.4161 43.5216 63.0785 42.8532C63.7482 42.1776 64.1049 41.2621 64.0758 40.3104C64.1049 39.3659 63.7409 38.4577 63.0785 37.7893C62.4088 37.1209 61.4988 36.7577 60.5525 36.794H58.718V43.8558Z" fill="white"/>
<path d="M13.3822 66.8222C13.3094 66.7133 13.3167 66.568 13.4113 66.4735L13.9136 65.9286C14.0155 65.8124 14.1903 65.8051 14.3067 65.9068C14.3213 65.9214 14.3358 65.9359 14.3504 65.9577C14.6198 66.3137 15.042 66.5316 15.486 66.5534C15.8646 66.5607 16.2213 66.4009 16.4688 66.1175C16.7672 65.7543 16.9201 65.2893 16.8837 64.8171V58.2493C16.8837 58.1766 16.9128 58.1112 16.9565 58.0604C17.0075 58.0023 17.0802 57.9805 17.1603 57.9805H18.0776C18.1503 57.9805 18.2159 58.0095 18.2668 58.0531C18.3178 58.104 18.3469 58.1694 18.3396 58.242V64.788C18.3833 65.609 18.0994 66.4081 17.5389 67.0112C17.0002 67.556 16.2577 67.8467 15.4933 67.8249C14.6707 67.8539 13.8845 67.4761 13.3822 66.8222Z" fill="white"/>
<path d="M36.0944 66.5323C35.148 65.6024 34.6239 64.3237 34.653 62.9942C34.6312 61.6719 35.1553 60.3932 36.1016 59.4633C37.0261 58.5043 38.3001 57.9666 39.6322 57.9884C40.9644 57.9666 42.2529 58.497 43.1774 59.4633C44.1237 60.3932 44.6551 61.6646 44.6333 62.9942C44.6624 64.3237 44.131 65.5951 43.1774 66.5251C42.2456 67.4768 40.9644 67.9999 39.6395 67.9709C38.3074 67.9999 37.0261 67.4768 36.0944 66.5323ZM37.0917 60.4441C36.4074 61.1125 36.0216 62.0352 36.0361 62.9942C36.0216 63.9459 36.4074 64.8613 37.0917 65.5297C37.7541 66.2127 38.6786 66.5977 39.6322 66.5832C40.5931 66.5977 41.5104 66.2199 42.1801 65.5297C42.8716 64.8686 43.2575 63.9532 43.2429 62.9942C43.2575 62.0352 42.8716 61.1125 42.1801 60.4441C41.5176 59.7539 40.5931 59.3688 39.6322 59.3761C38.6786 59.3688 37.7541 59.7539 37.0917 60.4441Z" fill="white"/>
<path d="M60.6778 67.4339V63.0239L57.4239 58.396C57.3729 58.3161 57.3656 58.2143 57.4093 58.1271C57.4603 58.04 57.5549 57.9818 57.6568 57.9964H58.6759C58.7633 58.0036 58.8434 58.0472 58.8943 58.1199L61.4131 61.6581L63.9245 58.1199C63.9755 58.0472 64.0556 57.9964 64.1429 57.9964H65.1839C65.2858 57.9891 65.3732 58.04 65.4241 58.1271C65.4678 58.2143 65.4678 58.3161 65.4096 58.396L62.1265 63.0094V67.4339C62.1265 67.4993 62.0973 67.5647 62.0464 67.6156C62.0027 67.6664 61.9372 67.6955 61.8644 67.6955H60.9472C60.8744 67.6955 60.8089 67.6664 60.7579 67.6228C60.7069 67.572 60.6778 67.5066 60.6778 67.4339Z" fill="white"/>
<defs>
<linearGradient id="paint0_linear_47_116" x1="60.5028" y1="11.8933" x2="18.7177" y2="68.0008" gradientUnits="userSpaceOnUse">
<stop stop-color="#FF5287"/>
<stop offset="1" stop-color="#5446FF"/>
</linearGradient>
</defs>
</svg>
