<svg width="44" height="59" viewBox="0 0 44 59" fill="none" xmlns="http://www.w3.org/2000/svg">
<path d="M18.36 38.3232C18.36 35.5498 18.9733 33.2565 20.2 31.4432C21.48 29.6298 23.32 27.6298 25.72 25.4432C27.48 23.8432 28.76 22.5098 29.56 21.4432C30.4133 20.3232 30.84 19.0698 30.84 17.6832C30.84 15.7098 30.04 14.1632 28.44 13.0432C26.8933 11.8698 24.8133 11.2832 22.2 11.2832C19.6933 11.2832 17.4533 11.8165 15.48 12.8832C13.56 13.8965 11.9333 15.3365 10.6 17.2032L0.92 11.5232C3.16 8.10985 6.17333 5.46985 9.96 3.60318C13.8 1.73652 18.3333 0.803183 23.56 0.803183C29.6933 0.803183 34.6 2.10985 38.28 4.72318C42.0133 7.33651 43.88 10.9632 43.88 15.6032C43.88 17.7898 43.5067 19.7098 42.76 21.3632C42.0667 23.0165 41.1867 24.4298 40.12 25.6032C39.1067 26.7232 37.7733 28.0298 36.12 29.5232C34.1467 31.2832 32.7067 32.7765 31.8 34.0032C30.8933 35.1765 30.44 36.6165 30.44 38.3232H18.36ZM24.44 58.4032C22.2533 58.4032 20.4133 57.7099 18.92 56.3232C17.48 54.8832 16.76 53.1499 16.76 51.1232C16.76 49.0965 17.48 47.4165 18.92 46.0832C20.36 44.6965 22.2 44.0032 24.44 44.0032C26.68 44.0032 28.52 44.6965 29.96 46.0832C31.4 47.4165 32.12 49.0965 32.12 51.1232C32.12 53.1499 31.3733 54.8832 29.88 56.3232C28.44 57.7099 26.6267 58.4032 24.44 58.4032Z" fill="#6B6B6B"/>
</svg>
