<svg width="19" height="19" viewBox="0 0 19 19" fill="none" xmlns="http://www.w3.org/2000/svg">
<circle cx="9.5" cy="9.5" r="8.75" stroke="#98A4AE" stroke-width="1.5"/>
<path d="M8.41593 11.598C8.41593 11.2713 8.46726 10.982 8.56993 10.73C8.68193 10.478 8.81726 10.254 8.97593 10.058C9.14393 9.862 9.32126 9.68 9.50793 9.512C9.6946 9.344 9.86726 9.18533 10.0259 9.036C10.1939 8.87733 10.3293 8.714 10.4319 8.546C10.5439 8.378 10.5999 8.19133 10.5999 7.986C10.5999 7.65 10.4599 7.37933 10.1799 7.174C9.90926 6.96867 9.54526 6.866 9.08793 6.866C8.64926 6.866 8.25726 6.95933 7.91193 7.146C7.5666 7.32333 7.28193 7.57533 7.05793 7.902L5.36393 6.908C5.73726 6.33867 6.25526 5.886 6.91793 5.55C7.5806 5.20467 8.38326 5.032 9.32593 5.032C10.0259 5.032 10.6419 5.13467 11.1739 5.34C11.7059 5.536 12.1213 5.82533 12.4199 6.208C12.7279 6.59067 12.8819 7.062 12.8819 7.622C12.8819 7.986 12.8259 8.308 12.7139 8.588C12.6019 8.868 12.4573 9.11067 12.2799 9.316C12.1026 9.52133 11.9113 9.71267 11.7059 9.89C11.5099 10.0673 11.3233 10.24 11.1459 10.408C10.9686 10.576 10.8193 10.7533 10.6979 10.94C10.5859 11.1267 10.5299 11.346 10.5299 11.598H8.41593ZM9.47993 15.112C9.08793 15.112 8.76593 14.986 8.51393 14.734C8.26193 14.482 8.13593 14.1833 8.13593 13.838C8.13593 13.4833 8.26193 13.1893 8.51393 12.956C8.76593 12.7133 9.08793 12.592 9.47993 12.592C9.88126 12.592 10.2033 12.7133 10.4459 12.956C10.6979 13.1893 10.8239 13.4833 10.8239 13.838C10.8239 14.1833 10.6979 14.482 10.4459 14.734C10.2033 14.986 9.88126 15.112 9.47993 15.112Z" fill="#98A4AE"/>
</svg>
